<mxfile host="app.diagrams.net" modified="2024-06-21T12:28:08.580Z" agent="Mozilla/5.0 (X11; Ubuntu; Linux x86_64; rv:124.0) Gecko/20100101 Firefox/124.0" etag="YKXvFO7MSieystuWrGOr" scale="1" border="0" version="24.6.0" type="device">
  <diagram id="C5RBs43oDa-KdzZeNtuy" name="Page-1">
    <mxGraphModel dx="1623" dy="883" grid="1" gridSize="10" guides="1" tooltips="1" connect="1" arrows="1" fold="1" page="1" pageScale="1" pageWidth="827" pageHeight="1169" math="0" shadow="0">
      <root>
        <mxCell id="WIyWlLk6GJQsqaUBKTNV-0" />
        <mxCell id="WIyWlLk6GJQsqaUBKTNV-1" parent="WIyWlLk6GJQsqaUBKTNV-0" />
        <mxCell id="wHBk7u7HtBcAR4JVkmF9-58" value="" style="rounded=0;whiteSpace=wrap;html=1;glass=0;fillColor=none;align=center;" parent="WIyWlLk6GJQsqaUBKTNV-1" vertex="1">
          <mxGeometry x="30" y="840" width="770" height="210" as="geometry" />
        </mxCell>
        <mxCell id="wHBk7u7HtBcAR4JVkmF9-29" value="" style="rounded=0;whiteSpace=wrap;html=1;glass=0;fillColor=none;align=center;" parent="WIyWlLk6GJQsqaUBKTNV-1" vertex="1">
          <mxGeometry x="320" y="120" width="190" height="680" as="geometry" />
        </mxCell>
        <mxCell id="UR-8Ka3CI74X5h6lj5JU-5" style="edgeStyle=orthogonalEdgeStyle;rounded=0;orthogonalLoop=1;jettySize=auto;html=1;" edge="1" parent="WIyWlLk6GJQsqaUBKTNV-1" source="wHBk7u7HtBcAR4JVkmF9-6" target="wHBk7u7HtBcAR4JVkmF9-8">
          <mxGeometry relative="1" as="geometry" />
        </mxCell>
        <mxCell id="wHBk7u7HtBcAR4JVkmF9-6" value="" style="ellipse;html=1;shape=startState;fillColor=#000000;strokeColor=#ff0000;" parent="WIyWlLk6GJQsqaUBKTNV-1" vertex="1">
          <mxGeometry x="400" y="70" width="30" height="30" as="geometry" />
        </mxCell>
        <mxCell id="wHBk7u7HtBcAR4JVkmF9-11" style="edgeStyle=orthogonalEdgeStyle;rounded=0;orthogonalLoop=1;jettySize=auto;html=1;" parent="WIyWlLk6GJQsqaUBKTNV-1" source="wHBk7u7HtBcAR4JVkmF9-8" target="wHBk7u7HtBcAR4JVkmF9-10" edge="1">
          <mxGeometry relative="1" as="geometry" />
        </mxCell>
        <mxCell id="wHBk7u7HtBcAR4JVkmF9-8" value="Data Loading and Filtering" style="html=1;whiteSpace=wrap;glass=0;rounded=1;" parent="WIyWlLk6GJQsqaUBKTNV-1" vertex="1">
          <mxGeometry x="359" y="160" width="110" height="50" as="geometry" />
        </mxCell>
        <mxCell id="UR-8Ka3CI74X5h6lj5JU-8" style="edgeStyle=orthogonalEdgeStyle;rounded=0;orthogonalLoop=1;jettySize=auto;html=1;" edge="1" parent="WIyWlLk6GJQsqaUBKTNV-1" source="wHBk7u7HtBcAR4JVkmF9-10" target="wHBk7u7HtBcAR4JVkmF9-15">
          <mxGeometry relative="1" as="geometry" />
        </mxCell>
        <mxCell id="wHBk7u7HtBcAR4JVkmF9-10" value="Visual Inspection" style="html=1;whiteSpace=wrap;rounded=1;" parent="WIyWlLk6GJQsqaUBKTNV-1" vertex="1">
          <mxGeometry x="359" y="240" width="110" height="50" as="geometry" />
        </mxCell>
        <mxCell id="wHBk7u7HtBcAR4JVkmF9-13" value="" style="ellipse;html=1;shape=endState;fillColor=#000000;strokeColor=#ff0000;" parent="WIyWlLk6GJQsqaUBKTNV-1" vertex="1">
          <mxGeometry x="400" y="1310" width="30" height="30" as="geometry" />
        </mxCell>
        <mxCell id="wHBk7u7HtBcAR4JVkmF9-20" style="edgeStyle=orthogonalEdgeStyle;rounded=0;orthogonalLoop=1;jettySize=auto;html=1;" parent="WIyWlLk6GJQsqaUBKTNV-1" source="wHBk7u7HtBcAR4JVkmF9-15" target="wHBk7u7HtBcAR4JVkmF9-16" edge="1">
          <mxGeometry relative="1" as="geometry" />
        </mxCell>
        <mxCell id="wHBk7u7HtBcAR4JVkmF9-15" value="Bandpass Filter" style="html=1;whiteSpace=wrap;rounded=1;" parent="WIyWlLk6GJQsqaUBKTNV-1" vertex="1">
          <mxGeometry x="359" y="320" width="110" height="50" as="geometry" />
        </mxCell>
        <mxCell id="wHBk7u7HtBcAR4JVkmF9-24" style="edgeStyle=orthogonalEdgeStyle;rounded=0;orthogonalLoop=1;jettySize=auto;html=1;" parent="WIyWlLk6GJQsqaUBKTNV-1" source="wHBk7u7HtBcAR4JVkmF9-16" target="wHBk7u7HtBcAR4JVkmF9-19" edge="1">
          <mxGeometry relative="1" as="geometry" />
        </mxCell>
        <mxCell id="wHBk7u7HtBcAR4JVkmF9-16" value="Artifact Removal" style="html=1;whiteSpace=wrap;rounded=1;" parent="WIyWlLk6GJQsqaUBKTNV-1" vertex="1">
          <mxGeometry x="359" y="400" width="110" height="50" as="geometry" />
        </mxCell>
        <mxCell id="wHBk7u7HtBcAR4JVkmF9-25" style="edgeStyle=orthogonalEdgeStyle;rounded=0;orthogonalLoop=1;jettySize=auto;html=1;" parent="WIyWlLk6GJQsqaUBKTNV-1" source="wHBk7u7HtBcAR4JVkmF9-19" target="wHBk7u7HtBcAR4JVkmF9-21" edge="1">
          <mxGeometry relative="1" as="geometry" />
        </mxCell>
        <mxCell id="wHBk7u7HtBcAR4JVkmF9-19" value="De-Noising" style="html=1;whiteSpace=wrap;rounded=1;" parent="WIyWlLk6GJQsqaUBKTNV-1" vertex="1">
          <mxGeometry x="359" y="480" width="110" height="50" as="geometry" />
        </mxCell>
        <mxCell id="wHBk7u7HtBcAR4JVkmF9-27" style="edgeStyle=orthogonalEdgeStyle;rounded=0;orthogonalLoop=1;jettySize=auto;html=1;" parent="WIyWlLk6GJQsqaUBKTNV-1" source="wHBk7u7HtBcAR4JVkmF9-21" target="wHBk7u7HtBcAR4JVkmF9-22" edge="1">
          <mxGeometry relative="1" as="geometry" />
        </mxCell>
        <mxCell id="wHBk7u7HtBcAR4JVkmF9-21" value="Feature Extraction" style="html=1;whiteSpace=wrap;rounded=1;" parent="WIyWlLk6GJQsqaUBKTNV-1" vertex="1">
          <mxGeometry x="359" y="560" width="110" height="50" as="geometry" />
        </mxCell>
        <mxCell id="wHBk7u7HtBcAR4JVkmF9-28" style="edgeStyle=orthogonalEdgeStyle;rounded=0;orthogonalLoop=1;jettySize=auto;html=1;" parent="WIyWlLk6GJQsqaUBKTNV-1" source="wHBk7u7HtBcAR4JVkmF9-22" target="wHBk7u7HtBcAR4JVkmF9-23" edge="1">
          <mxGeometry relative="1" as="geometry" />
        </mxCell>
        <mxCell id="wHBk7u7HtBcAR4JVkmF9-22" value="Normalization" style="html=1;whiteSpace=wrap;rounded=1;" parent="WIyWlLk6GJQsqaUBKTNV-1" vertex="1">
          <mxGeometry x="359" y="640" width="110" height="50" as="geometry" />
        </mxCell>
        <mxCell id="wHBk7u7HtBcAR4JVkmF9-36" style="edgeStyle=orthogonalEdgeStyle;rounded=0;orthogonalLoop=1;jettySize=auto;html=1;" parent="WIyWlLk6GJQsqaUBKTNV-1" source="wHBk7u7HtBcAR4JVkmF9-23" target="wHBk7u7HtBcAR4JVkmF9-35" edge="1">
          <mxGeometry relative="1" as="geometry" />
        </mxCell>
        <mxCell id="wHBk7u7HtBcAR4JVkmF9-23" value="Dimensionality Reduction" style="html=1;whiteSpace=wrap;rounded=1;" parent="WIyWlLk6GJQsqaUBKTNV-1" vertex="1">
          <mxGeometry x="359" y="720" width="110" height="50" as="geometry" />
        </mxCell>
        <mxCell id="wHBk7u7HtBcAR4JVkmF9-31" value="Preprocessing" style="text;html=1;align=center;verticalAlign=middle;whiteSpace=wrap;rounded=0;" parent="WIyWlLk6GJQsqaUBKTNV-1" vertex="1">
          <mxGeometry x="320" y="120" width="90" height="30" as="geometry" />
        </mxCell>
        <mxCell id="wHBk7u7HtBcAR4JVkmF9-42" style="edgeStyle=orthogonalEdgeStyle;rounded=0;orthogonalLoop=1;jettySize=auto;html=1;" parent="WIyWlLk6GJQsqaUBKTNV-1" source="wHBk7u7HtBcAR4JVkmF9-35" target="wHBk7u7HtBcAR4JVkmF9-38" edge="1">
          <mxGeometry relative="1" as="geometry" />
        </mxCell>
        <mxCell id="wHBk7u7HtBcAR4JVkmF9-44" style="edgeStyle=orthogonalEdgeStyle;rounded=0;orthogonalLoop=1;jettySize=auto;html=1;" parent="WIyWlLk6GJQsqaUBKTNV-1" source="wHBk7u7HtBcAR4JVkmF9-35" target="wHBk7u7HtBcAR4JVkmF9-40" edge="1">
          <mxGeometry relative="1" as="geometry">
            <Array as="points">
              <mxPoint x="440" y="910" />
              <mxPoint x="565" y="910" />
            </Array>
          </mxGeometry>
        </mxCell>
        <mxCell id="wHBk7u7HtBcAR4JVkmF9-45" style="edgeStyle=orthogonalEdgeStyle;rounded=0;orthogonalLoop=1;jettySize=auto;html=1;" parent="WIyWlLk6GJQsqaUBKTNV-1" source="wHBk7u7HtBcAR4JVkmF9-35" target="wHBk7u7HtBcAR4JVkmF9-41" edge="1">
          <mxGeometry relative="1" as="geometry">
            <Array as="points">
              <mxPoint x="470" y="900" />
              <mxPoint x="715" y="900" />
            </Array>
          </mxGeometry>
        </mxCell>
        <mxCell id="wHBk7u7HtBcAR4JVkmF9-46" style="edgeStyle=orthogonalEdgeStyle;rounded=0;orthogonalLoop=1;jettySize=auto;html=1;" parent="WIyWlLk6GJQsqaUBKTNV-1" source="wHBk7u7HtBcAR4JVkmF9-35" target="wHBk7u7HtBcAR4JVkmF9-37" edge="1">
          <mxGeometry relative="1" as="geometry">
            <Array as="points">
              <mxPoint x="390" y="910" />
              <mxPoint x="265" y="910" />
            </Array>
          </mxGeometry>
        </mxCell>
        <mxCell id="wHBk7u7HtBcAR4JVkmF9-47" style="edgeStyle=orthogonalEdgeStyle;rounded=0;orthogonalLoop=1;jettySize=auto;html=1;" parent="WIyWlLk6GJQsqaUBKTNV-1" source="wHBk7u7HtBcAR4JVkmF9-35" target="wHBk7u7HtBcAR4JVkmF9-39" edge="1">
          <mxGeometry relative="1" as="geometry">
            <Array as="points">
              <mxPoint x="360" y="900" />
              <mxPoint x="115" y="900" />
            </Array>
          </mxGeometry>
        </mxCell>
        <mxCell id="wHBk7u7HtBcAR4JVkmF9-35" value="" style="whiteSpace=wrap;html=1;rounded=0;shadow=0;comic=0;labelBackgroundColor=none;strokeWidth=1;fillColor=#000000;fontFamily=Verdana;fontSize=12;align=center;rotation=0;" parent="WIyWlLk6GJQsqaUBKTNV-1" vertex="1">
          <mxGeometry x="340" y="870" width="147" height="10" as="geometry" />
        </mxCell>
        <mxCell id="wHBk7u7HtBcAR4JVkmF9-50" style="edgeStyle=orthogonalEdgeStyle;rounded=0;orthogonalLoop=1;jettySize=auto;html=1;" parent="WIyWlLk6GJQsqaUBKTNV-1" source="wHBk7u7HtBcAR4JVkmF9-37" target="wHBk7u7HtBcAR4JVkmF9-48" edge="1">
          <mxGeometry relative="1" as="geometry">
            <Array as="points">
              <mxPoint x="265" y="980" />
              <mxPoint x="390" y="980" />
            </Array>
          </mxGeometry>
        </mxCell>
        <mxCell id="wHBk7u7HtBcAR4JVkmF9-37" value="Low vs High Digit Comparison" style="html=1;whiteSpace=wrap;rounded=1;" parent="WIyWlLk6GJQsqaUBKTNV-1" vertex="1">
          <mxGeometry x="210" y="920" width="110" height="50" as="geometry" />
        </mxCell>
        <mxCell id="wHBk7u7HtBcAR4JVkmF9-54" style="edgeStyle=orthogonalEdgeStyle;rounded=0;orthogonalLoop=1;jettySize=auto;html=1;entryX=0.5;entryY=0;entryDx=0;entryDy=0;" parent="WIyWlLk6GJQsqaUBKTNV-1" source="wHBk7u7HtBcAR4JVkmF9-38" target="wHBk7u7HtBcAR4JVkmF9-48" edge="1">
          <mxGeometry relative="1" as="geometry" />
        </mxCell>
        <mxCell id="wHBk7u7HtBcAR4JVkmF9-38" value="L vs R Hemisphere Comparison" style="html=1;whiteSpace=wrap;rounded=1;" parent="WIyWlLk6GJQsqaUBKTNV-1" vertex="1">
          <mxGeometry x="359" y="920" width="110" height="50" as="geometry" />
        </mxCell>
        <mxCell id="wHBk7u7HtBcAR4JVkmF9-49" style="edgeStyle=orthogonalEdgeStyle;rounded=0;orthogonalLoop=1;jettySize=auto;html=1;" parent="WIyWlLk6GJQsqaUBKTNV-1" source="wHBk7u7HtBcAR4JVkmF9-39" target="wHBk7u7HtBcAR4JVkmF9-48" edge="1">
          <mxGeometry relative="1" as="geometry">
            <Array as="points">
              <mxPoint x="115" y="990" />
              <mxPoint x="360" y="990" />
            </Array>
          </mxGeometry>
        </mxCell>
        <mxCell id="wHBk7u7HtBcAR4JVkmF9-39" value="Digit vs Non-Digit Comparison" style="html=1;whiteSpace=wrap;rounded=1;" parent="WIyWlLk6GJQsqaUBKTNV-1" vertex="1">
          <mxGeometry x="60" y="920" width="110" height="50" as="geometry" />
        </mxCell>
        <mxCell id="wHBk7u7HtBcAR4JVkmF9-55" style="edgeStyle=orthogonalEdgeStyle;rounded=0;orthogonalLoop=1;jettySize=auto;html=1;" parent="WIyWlLk6GJQsqaUBKTNV-1" source="wHBk7u7HtBcAR4JVkmF9-40" target="wHBk7u7HtBcAR4JVkmF9-48" edge="1">
          <mxGeometry relative="1" as="geometry">
            <Array as="points">
              <mxPoint x="565" y="980" />
              <mxPoint x="440" y="980" />
            </Array>
          </mxGeometry>
        </mxCell>
        <mxCell id="wHBk7u7HtBcAR4JVkmF9-40" value="Frontal vs Parietal Comparison" style="html=1;whiteSpace=wrap;rounded=1;" parent="WIyWlLk6GJQsqaUBKTNV-1" vertex="1">
          <mxGeometry x="510" y="920" width="110" height="50" as="geometry" />
        </mxCell>
        <mxCell id="wHBk7u7HtBcAR4JVkmF9-56" style="edgeStyle=orthogonalEdgeStyle;rounded=0;orthogonalLoop=1;jettySize=auto;html=1;" parent="WIyWlLk6GJQsqaUBKTNV-1" source="wHBk7u7HtBcAR4JVkmF9-41" target="wHBk7u7HtBcAR4JVkmF9-48" edge="1">
          <mxGeometry relative="1" as="geometry">
            <Array as="points">
              <mxPoint x="715" y="990" />
              <mxPoint x="470" y="990" />
            </Array>
          </mxGeometry>
        </mxCell>
        <mxCell id="wHBk7u7HtBcAR4JVkmF9-41" value="Highest Activation Node" style="html=1;whiteSpace=wrap;rounded=1;" parent="WIyWlLk6GJQsqaUBKTNV-1" vertex="1">
          <mxGeometry x="660" y="920" width="110" height="50" as="geometry" />
        </mxCell>
        <mxCell id="UR-8Ka3CI74X5h6lj5JU-1" style="edgeStyle=orthogonalEdgeStyle;rounded=0;orthogonalLoop=1;jettySize=auto;html=1;" edge="1" parent="WIyWlLk6GJQsqaUBKTNV-1" source="wHBk7u7HtBcAR4JVkmF9-48" target="UR-8Ka3CI74X5h6lj5JU-0">
          <mxGeometry relative="1" as="geometry" />
        </mxCell>
        <mxCell id="wHBk7u7HtBcAR4JVkmF9-48" value="" style="whiteSpace=wrap;html=1;rounded=0;shadow=0;comic=0;labelBackgroundColor=none;strokeWidth=1;fillColor=#000000;fontFamily=Verdana;fontSize=12;align=center;rotation=0;" parent="WIyWlLk6GJQsqaUBKTNV-1" vertex="1">
          <mxGeometry x="340.5" y="1010" width="147" height="10" as="geometry" />
        </mxCell>
        <mxCell id="wHBk7u7HtBcAR4JVkmF9-59" value="Analysis" style="text;html=1;align=center;verticalAlign=middle;whiteSpace=wrap;rounded=0;" parent="WIyWlLk6GJQsqaUBKTNV-1" vertex="1">
          <mxGeometry x="30" y="840" width="60" height="30" as="geometry" />
        </mxCell>
        <mxCell id="UR-8Ka3CI74X5h6lj5JU-3" style="edgeStyle=orthogonalEdgeStyle;rounded=0;orthogonalLoop=1;jettySize=auto;html=1;" edge="1" parent="WIyWlLk6GJQsqaUBKTNV-1" source="UR-8Ka3CI74X5h6lj5JU-0" target="UR-8Ka3CI74X5h6lj5JU-2">
          <mxGeometry relative="1" as="geometry" />
        </mxCell>
        <mxCell id="UR-8Ka3CI74X5h6lj5JU-0" value="Visualization Generation" style="html=1;whiteSpace=wrap;rounded=1;" vertex="1" parent="WIyWlLk6GJQsqaUBKTNV-1">
          <mxGeometry x="360" y="1120" width="110" height="50" as="geometry" />
        </mxCell>
        <mxCell id="UR-8Ka3CI74X5h6lj5JU-4" style="edgeStyle=orthogonalEdgeStyle;rounded=0;orthogonalLoop=1;jettySize=auto;html=1;" edge="1" parent="WIyWlLk6GJQsqaUBKTNV-1" source="UR-8Ka3CI74X5h6lj5JU-2" target="wHBk7u7HtBcAR4JVkmF9-13">
          <mxGeometry relative="1" as="geometry" />
        </mxCell>
        <mxCell id="UR-8Ka3CI74X5h6lj5JU-2" value="Report Creation" style="html=1;whiteSpace=wrap;rounded=1;" vertex="1" parent="WIyWlLk6GJQsqaUBKTNV-1">
          <mxGeometry x="360" y="1200" width="110" height="50" as="geometry" />
        </mxCell>
        <mxCell id="UR-8Ka3CI74X5h6lj5JU-6" value="" style="rounded=0;whiteSpace=wrap;html=1;glass=0;fillColor=none;align=center;" vertex="1" parent="WIyWlLk6GJQsqaUBKTNV-1">
          <mxGeometry x="320" y="1090" width="190" height="190" as="geometry" />
        </mxCell>
        <mxCell id="UR-8Ka3CI74X5h6lj5JU-7" value="Output" style="text;html=1;align=center;verticalAlign=middle;whiteSpace=wrap;rounded=0;" vertex="1" parent="WIyWlLk6GJQsqaUBKTNV-1">
          <mxGeometry x="320" y="1089" width="60" height="30" as="geometry" />
        </mxCell>
      </root>
    </mxGraphModel>
  </diagram>
</mxfile>
